<svg xmlns="http://www.w3.org/2000/svg" width="1100" height="583" viewBox="0 0 1100 583">
<rect width="100%" height="100%" fill="white"/>
<text x="24" y="30" font-family="Arial, sans-serif" font-size="20" font-weight="700">Top Pathway Enrichment By Cancer Type</text>
<text x="24" y="50" font-family="Arial, sans-serif" font-size="12" fill="#555">Top GO/pathway term per cancer type, ranked by -log10(p).</text>
<text x="262" y="78" font-family="Arial, sans-serif" font-size="11" text-anchor="end">Alveolar soft part sarcoma</text>
<rect x="270" y="63" width="790.0" height="20" fill="#4f7f9f"/>
<text x="1066.0" y="78" font-family="Arial, sans-serif" font-size="11" fill="#333">17.3</text>
<text x="262" y="108" font-family="Arial, sans-serif" font-size="11" text-anchor="end">Glioblastoma multiome</text>
<rect x="270" y="93" width="614.1" height="20" fill="#4f7f9f"/>
<text x="890.1" y="108" font-family="Arial, sans-serif" font-size="11" fill="#333">13.4</text>
<text x="262" y="138" font-family="Arial, sans-serif" font-size="11" text-anchor="end">Rheumatoid arthritis</text>
<rect x="270" y="123" width="560.6" height="20" fill="#4f7f9f"/>
<text x="836.6" y="138" font-family="Arial, sans-serif" font-size="11" fill="#333">12.3</text>
<text x="262" y="168" font-family="Arial, sans-serif" font-size="11" text-anchor="end">Breast cancer</text>
<rect x="270" y="153" width="504.0" height="20" fill="#4f7f9f"/>
<text x="780.0" y="168" font-family="Arial, sans-serif" font-size="11" fill="#333">11.0</text>
<text x="262" y="198" font-family="Arial, sans-serif" font-size="11" text-anchor="end">Clear cell renal cell carcinoma</text>
<rect x="270" y="183" width="499.4" height="20" fill="#4f7f9f"/>
<text x="775.4" y="198" font-family="Arial, sans-serif" font-size="11" fill="#333">10.9</text>
<text x="262" y="228" font-family="Arial, sans-serif" font-size="11" text-anchor="end">Neuroblastoma</text>
<rect x="270" y="213" width="489.8" height="20" fill="#4f7f9f"/>
<text x="765.8" y="228" font-family="Arial, sans-serif" font-size="11" fill="#333">10.7</text>
<text x="262" y="258" font-family="Arial, sans-serif" font-size="11" text-anchor="end">Colorectal cancer</text>
<rect x="270" y="243" width="362.3" height="20" fill="#4f7f9f"/>
<text x="638.3" y="258" font-family="Arial, sans-serif" font-size="11" fill="#333">7.9</text>
<text x="262" y="288" font-family="Arial, sans-serif" font-size="11" text-anchor="end">Colon cancer</text>
<rect x="270" y="273" width="336.7" height="20" fill="#4f7f9f"/>
<text x="612.7" y="288" font-family="Arial, sans-serif" font-size="11" fill="#333">7.4</text>
<text x="262" y="318" font-family="Arial, sans-serif" font-size="11" text-anchor="end">Acute myeloid leukemia</text>
<rect x="270" y="303" width="326.2" height="20" fill="#4f7f9f"/>
<text x="602.2" y="318" font-family="Arial, sans-serif" font-size="11" fill="#333">7.1</text>
<text x="262" y="348" font-family="Arial, sans-serif" font-size="11" text-anchor="end">Ovarian cancer</text>
<rect x="270" y="333" width="322.6" height="20" fill="#4f7f9f"/>
<text x="598.6" y="348" font-family="Arial, sans-serif" font-size="11" fill="#333">7.1</text>
<text x="262" y="378" font-family="Arial, sans-serif" font-size="11" text-anchor="end">Prostate cancer</text>
<rect x="270" y="363" width="320.8" height="20" fill="#4f7f9f"/>
<text x="596.8" y="378" font-family="Arial, sans-serif" font-size="11" fill="#333">7.0</text>
<text x="262" y="408" font-family="Arial, sans-serif" font-size="11" text-anchor="end">Gastrointestinal stromal tumor</text>
<rect x="270" y="393" width="300.2" height="20" fill="#4f7f9f"/>
<text x="576.2" y="408" font-family="Arial, sans-serif" font-size="11" fill="#333">6.6</text>
<text x="262" y="438" font-family="Arial, sans-serif" font-size="11" text-anchor="end">Multiple myeloma</text>
<rect x="270" y="423" width="278.7" height="20" fill="#4f7f9f"/>
<text x="554.7" y="438" font-family="Arial, sans-serif" font-size="11" fill="#333">6.1</text>
<text x="262" y="468" font-family="Arial, sans-serif" font-size="11" text-anchor="end">Burkitt's lymphoma</text>
<rect x="270" y="453" width="263.6" height="20" fill="#4f7f9f"/>
<text x="539.6" y="468" font-family="Arial, sans-serif" font-size="11" fill="#333">5.8</text>
<text x="262" y="498" font-family="Arial, sans-serif" font-size="11" text-anchor="end">Adult T-cell Leukemia/Lymphoma (ATLL)</text>
<rect x="270" y="483" width="240.8" height="20" fill="#4f7f9f"/>
<text x="516.8" y="498" font-family="Arial, sans-serif" font-size="11" fill="#333">5.3</text>
<text x="262" y="528" font-family="Arial, sans-serif" font-size="11" text-anchor="end">Acute promyelocytic leukemia</text>
<rect x="270" y="513" width="169.1" height="20" fill="#4f7f9f"/>
<text x="445.1" y="528" font-family="Arial, sans-serif" font-size="11" fill="#333">3.7</text>
</svg>